<svg width="240" height="75" viewBox="0 0 240 75" fill="none" xmlns="http://www.w3.org/2000/svg">
<path d="M161.351 41.8916V43.2578C161.351 45.112 160.696 46.5434 159.256 47.3241C157.946 48.0398 156.145 48.3976 153.886 48.3976C152.085 48.3976 150.252 48.2675 148.451 48.0072L147.895 47.9422V47.3892V45.1446V44.3964L148.648 44.5265C151.201 44.9494 152.969 45.1446 153.952 45.1446C155.228 45.1446 156.08 45.0145 156.604 44.8193C156.833 44.7217 156.931 44.6892 156.996 44.494C157.095 44.3313 157.16 44.1687 157.127 43.8759V42.2169C157.127 41.6964 156.964 41.4687 156.767 41.3386C156.473 41.1434 155.916 41.0133 154.934 41.0133H153.166C151.463 41.0133 150.056 40.6554 149.041 39.8422C148.026 39.0289 147.535 37.8904 147.535 36.5241V35.0602C147.535 33.5639 148.255 32.4253 149.63 31.7096C150.94 31.0265 152.806 30.7012 155.163 30.7012C155.687 30.7012 157.291 30.7988 159.943 30.9614L160.565 30.994V31.612V33.7265V34.5072L159.812 34.3771C158.241 34.0843 156.669 33.9542 155.065 33.9217C153.526 33.9217 152.642 34.0843 152.249 34.2795C151.954 34.4422 151.758 34.7024 151.758 35.2554V36.5892C151.758 36.8819 151.856 37.0771 152.151 37.2072C152.478 37.4024 153.068 37.5325 153.984 37.5325H155.13H155.785C157.488 37.5325 158.895 37.8578 159.878 38.606C160.86 39.3542 161.351 40.4928 161.351 41.8916ZM140.659 25.3012H140.004V26.2771V47.4217V48.0723H140.659H143.573H144.228V47.4217V26.2771V25.3012H143.573H140.659ZM179.063 36.7193V40.2V40.9157H178.409H168.586V42.5747C168.586 43.5181 168.914 44.0711 169.438 44.3639C170.06 44.7542 171.075 44.9819 172.548 44.9819C173.989 44.9819 175.658 44.7217 177.623 44.2337L178.441 44.0386V44.8843V47.0964V47.6169L177.917 47.747C176.019 48.1699 174.054 48.3976 172.122 48.4301C169.667 48.4301 167.735 48.0398 166.393 47.1289C164.985 46.1855 164.33 44.7542 164.33 42.9651V36.7193C164.33 34.6699 164.92 33.0759 166.229 32.0675C167.506 31.1241 169.438 30.7012 171.893 30.7012C174.185 30.7012 176.019 31.0916 177.23 32.0349C178.507 32.9783 179.063 34.6373 179.063 36.7193ZM174.84 35.8084C174.84 34.9952 174.578 34.5723 174.283 34.4096C173.858 34.1494 173.072 33.9867 171.73 33.9867C170.485 33.9867 169.667 34.1494 169.176 34.4096C168.848 34.6048 168.586 34.9952 168.586 35.841V37.6952H174.84V35.8084ZM132.867 31.0265H132.212V31.6771V43.5506C132.212 44.1687 132.016 44.4614 131.656 44.6241C131.164 44.8518 130.215 45.0145 128.578 45.0145C128.021 45.0145 127.498 44.9819 126.941 44.8193C126.646 44.7542 126.483 44.6566 126.286 44.4289C126.155 44.2663 126.057 44.1036 125.991 43.8759C125.926 43.5831 125.893 43.3554 125.926 43.0626V31.6771V31.0265H125.271H122.357H121.702V31.6771V43.2253C121.702 44.8518 122.128 46.1855 123.078 47.0964C124.06 48.0398 125.697 48.3976 127.792 48.3976C129.396 48.3976 130.706 48.2024 131.688 47.7795C131.885 47.6819 132.081 47.5843 132.278 47.4542V48.0723H132.932H135.846H136.501V47.4217V31.6771V31.0265H135.846H132.867ZM208.562 36.5241C207.253 36.5241 206.107 37.2398 205.55 38.3133H201.72L200.017 24H196.481L191.537 42.9976L190.261 37.6627H182.73V40.9157H187.314L189.704 51H193.109L197.529 34.312L198.478 41.0133L198.577 41.5663H205.55C206.14 42.6398 207.253 43.3554 208.562 43.3554C210.461 43.3554 212 41.8265 212 39.9398C212 38.053 210.461 36.5241 208.562 36.5241ZM117.839 28.294C118.167 28.9446 118.363 30.4735 118.363 30.4735V34.8651C118.363 36.8494 117.577 38.3783 115.94 39.2566C114.401 40.0699 112.339 40.4602 109.752 40.4602H107.231V47.4217V48.0723H106.577H103.433H102.779V47.4217V26.3096V25.659H103.433H110.276C111.16 25.659 111.913 25.6916 112.535 25.7241C113.223 25.7892 113.943 25.8867 114.598 26.0494C115.253 26.1795 115.94 26.4723 116.497 26.8301C117.053 27.2205 117.512 27.741 117.839 28.294ZM113.976 30.8313C114.009 30.441 113.91 30.1157 113.681 29.8229C113.419 29.4976 113.157 29.3349 112.764 29.2699C112.339 29.1398 111.913 29.0747 111.488 29.0096C111.127 28.9771 110.702 28.9771 110.145 28.9771H107.297V37.2072H110.211C111.389 37.2072 112.273 37.012 113.092 36.5892C113.714 36.2639 114.041 35.7108 114.041 34.7349L113.976 30.8313ZM37.7238 34.6699H35.2028C33.8932 34.6699 33.173 34.5072 32.8128 34.2795C32.5181 34.0843 32.3217 33.7916 32.3217 33.206V30.7988C32.3217 30.0181 32.5836 29.5627 33.0093 29.3349C33.2384 29.2048 33.6313 29.0747 34.2534 28.9771C34.8754 28.8795 35.6612 28.847 36.6434 28.847C37.953 28.847 39.7865 29.0422 42.1438 29.4L42.8968 29.5301V28.7819V26.3422V25.7566L42.3075 25.6916C40.5068 25.4639 38.6733 25.3337 36.8399 25.3337C33.6968 25.3337 31.3722 25.7241 29.9972 26.6675C28.6548 27.6108 28 29.0422 28 30.8964V32.588C28 34.3446 28.4256 35.8084 29.4078 36.8169C30.4228 37.8578 32.1253 38.3133 34.2861 38.3133H36.7416C38.0512 38.3133 38.7388 38.5084 39.0662 38.7361C39.3609 38.9313 39.5573 39.3542 39.5573 40.1349V42.8675C39.5573 43.2904 39.4918 43.5506 39.3609 43.8108C39.2299 44.0711 39.0989 44.1687 38.7715 44.2988C38.1167 44.5916 37.069 44.7542 35.6285 44.7542C33.8278 44.7542 31.6996 44.494 29.1786 43.941L28.3929 43.7783V44.5916V47.2265V47.7795L28.9822 47.8771C31.1103 48.2024 33.3039 48.3651 35.4648 48.3976C38.1822 48.3976 40.3431 47.9747 41.7509 46.9988C43.2897 45.9578 43.9445 44.1687 43.9445 41.794V40.2651C43.9445 38.4759 43.5516 37.012 42.6021 36.0687C41.6199 35.0602 39.9174 34.6699 37.7238 34.6699ZM98.195 25.3012H98.8498V26.2771V47.4217V48.0723H98.195H95.3466H94.6918V47.4217C94.5281 47.5193 94.3972 47.5843 94.2335 47.6819C93.1858 48.1699 91.7779 48.3976 90.1409 48.3976C87.8491 48.3976 86.0811 48.0398 84.968 47.194C83.7893 46.2831 83.331 44.7217 83.331 42.7373V35.8084C83.331 34.0843 83.8548 32.7181 85.0662 31.8723C86.2121 31.059 88.0128 30.7012 90.3046 30.7012C91.516 30.7012 92.7601 30.8639 93.9061 31.2217C94.168 31.3193 94.4299 31.4169 94.6918 31.547C94.6918 30.6687 94.6591 29.9205 94.6591 29.4V26.2771V25.3012H95.3139H97.573H98.195ZM94.6591 35.5157C94.6591 35.0928 94.4626 34.7675 93.9388 34.5072C93.3495 34.2145 92.4 34.0518 91.0249 34.0518C90.1737 34.0518 89.5189 34.0843 88.9623 34.1494C88.4057 34.2145 88.111 34.312 87.9473 34.3771C87.7509 34.4747 87.5217 34.7349 87.5217 35.5157V43.2904C87.5217 44.0386 87.7509 44.3964 88.111 44.6241C88.5367 44.8843 89.3879 45.0795 90.763 45.0795C92.3345 45.0795 93.3495 44.8843 93.9388 44.5916C94.4299 44.3639 94.6591 43.9735 94.6591 43.2904V35.5157V35.5157ZM61.8534 36.7193V40.2V40.9157H61.1986H51.3765V42.5747C51.3765 43.5181 51.7039 44.0711 52.2278 44.3639C52.8498 44.7542 53.8648 44.9819 55.3381 44.9819C56.7786 44.9819 58.4484 44.7217 60.4128 44.2337L61.2313 44.0386V44.8843V47.0964V47.6169L60.7075 47.747C58.8085 48.1699 56.8441 48.3976 54.9125 48.4301C52.4897 48.4301 50.5253 48.0398 49.1829 47.1289C47.7751 46.1855 47.1203 44.7542 47.1203 42.9651V36.7193C47.1203 34.6699 47.7096 33.0759 49.0192 32.0675C50.2961 31.1241 52.2278 30.7012 54.6833 30.7012C56.9751 30.7012 58.8085 31.0916 60.0199 32.0349C61.3295 32.9783 61.8534 34.6373 61.8534 36.7193ZM57.6626 37.6627L57.6299 35.8084C57.6299 34.9952 57.368 34.5723 57.0733 34.4096C56.6477 34.1494 55.8619 33.9867 54.5196 33.9867C53.2754 33.9867 52.4569 34.1494 51.9658 34.4096C51.6384 34.6048 51.3765 34.9952 51.3765 35.841L51.4093 37.6952H57.6626V37.6627ZM74 30.7012C72.3957 30.7012 71.0861 30.8964 70.1039 31.3193C69.9075 31.4169 69.711 31.5145 69.5146 31.6446V31.0265H68.8598H65.9786H65.3238V31.6771V47.4217V48.0723H65.9786H68.8925H69.5473V47.4217V36.0361C69.5473 35.1578 69.8093 34.7349 70.1039 34.5398C70.4968 34.2795 71.4463 34.0843 73.1815 34.0843C73.7381 34.0843 74.2619 34.1169 74.8185 34.2795C75.1132 34.3446 75.2769 34.4422 75.4733 34.6699C75.6043 34.8325 75.7025 34.9952 75.7352 35.2229C75.8007 35.5157 75.8335 35.7434 75.8007 36.0361V47.4217V48.0723H76.4555H79.3694H80.0242V47.4217V35.8735C80.0242 34.247 79.5986 32.9133 78.6819 32.0024C77.7324 31.059 76.0954 30.7012 74 30.7012Z" fill="#199FC0"/>
</svg>
